<?xml version="1.0" encoding="utf-8"?>
<!-- Generator: Adobe Illustrator 16.0.0, SVG Export Plug-In . SVG Version: 6.00 Build 0)  -->
<!DOCTYPE svg PUBLIC "-//W3C//DTD SVG 1.1//EN" "http://www.w3.org/Graphics/SVG/1.1/DTD/svg11.dtd">
<svg version="1.1" id="svg" xmlns="http://www.w3.org/2000/svg" xmlns:xlink="http://www.w3.org/1999/xlink" x="0px" y="0px"
	 width="350px" height="350px" viewBox="31.5 19.5 350 350" enable-background="new 31.5 19.5 350 350" xml:space="preserve">
<g id="svgg">
	<path id="path0" d="M183.467,29.787c-1.384,0.084-4.871,0.461-6.934,0.75c-1.094,0.154-2.914,0.51-5.333,1.045
		c-1.621,0.358-2.63,0.602-6.459,1.562c-0.839,0.21-1.608,0.309-1.709,0.219c-0.101-0.09-0.106-0.026-0.011,0.14
		c0.157,0.275-1.941,0.82-2.574,0.669c-0.121-0.028-0.144,0.071-0.051,0.221c0.093,0.151,0.002,0.274-0.202,0.274
		c-0.498,0-3.992,1.086-4.327,1.346c-0.147,0.113-0.717,0.29-1.267,0.393c-0.55,0.103-1,0.28-1,0.393
		c0,0.114-0.33,0.269-0.733,0.345c-0.818,0.155-2.846,0.859-3.672,1.275c-0.296,0.149-0.806,0.292-1.133,0.316
		c-0.749,0.057-0.791,0.732-0.045,0.732c0.624,0,2.902,0.673,4.157,1.228c0.462,0.204,0.924,0.372,1.028,0.372
		c0.103,0,0.721,0.36,1.373,0.8c0.652,0.44,1.289,0.8,1.416,0.8c0.127,0,0.271,0.091,0.32,0.202
		c0.145,0.329,3.987,2.842,5.356,3.501c1.655,0.798,1.606,0.835-0.534,0.397c-7.94-1.623-16.372-2.124-20.029-1.191
		c-1.131,0.289-3.755,0.69-4.234,0.647c-0.182-0.016-0.265,0.077-0.185,0.207c0.081,0.13-0.065,0.237-0.324,0.237
		c-0.749,0-4.361,1.146-4.361,1.384c0,0.119-0.21,0.216-0.467,0.217c-0.471,0.002-7.251,3.311-7.521,3.671
		c-0.193,0.258-1.069,0.8-1.812,1.122c-0.33,0.142-0.6,0.382-0.6,0.532c0,0.151-0.125,0.274-0.277,0.274
		c-0.248,0-1.781,0.972-2.123,1.345c-0.073,0.081-0.913,0.735-1.867,1.455c-0.953,0.72-2.033,1.574-2.4,1.899
		c-0.366,0.324-1.616,1.409-2.777,2.412l-2.111,1.822l1.311,0.059c1.917,0.086,5.801,0.64,6.111,0.87
		c0.146,0.11,0.566,0.265,0.933,0.345c0.367,0.08,0.967,0.227,1.333,0.328c1.575,0.43,3.203,0.634,5.175,0.649l2.108,0.016
		l-0.775,0.671c-0.426,0.37-1.254,0.999-1.841,1.4c-0.587,0.4-1.127,0.788-1.2,0.861c-0.221,0.222-1.861,1.09-4.4,2.328
		c-1.32,0.644-2.74,1.343-3.155,1.555s-0.877,0.385-1.026,0.385c-0.15,0-0.65,0.168-1.112,0.373
		c-0.819,0.363-2.131,0.796-4.84,1.596c-0.734,0.216-2.094,0.478-3.023,0.582l-1.689,0.189l0.179,0.963
		c0.099,0.53,0.276,1.083,0.392,1.23c0.117,0.147,0.302,0.683,0.41,1.191c0.109,0.509,0.295,1.109,0.412,1.334
		c0.261,0.499,0.929,2.74,1.193,4c0.106,0.508,0.293,1.108,0.415,1.333c0.123,0.225,0.354,1.009,0.514,1.742
		c0.161,0.733,0.456,2.05,0.657,2.926c0.201,0.875,0.295,1.715,0.21,1.866c-0.086,0.151-0.049,0.177,0.082,0.057
		c0.135-0.123,0.376,0.454,0.557,1.333c0.498,2.417,1.071,4.87,1.546,6.618c0.239,0.88,0.555,2.08,0.701,2.667
		c0.404,1.627,1.877,5.834,2.142,6.12c0.129,0.139,0.238,0.439,0.241,0.666c0.004,0.354,1.294,3.044,3.049,6.364
		c0.652,1.232,0.586,1.221-2.255-0.383c-1.393-0.787-2.832-1.581-3.196-1.765c-1.377-0.697-5.604-4.787-5.604-5.423
		c0-0.592-0.756-0.846-0.901-0.303c-0.403,1.503,0.022,10.144,0.639,12.99c0.144,0.66,0.321,1.722,0.396,2.361
		c0.074,0.638,0.213,1.287,0.309,1.442c0.299,0.485,0.857,3.503,0.695,3.764c-0.085,0.137-0.015,0.163,0.154,0.059
		c0.189-0.117,0.309-0.005,0.31,0.292c0.002,0.517,1.623,5.472,2.294,7.016c0.224,0.513,0.502,1.173,0.619,1.466
		c0.117,0.294,0.461,1.074,0.765,1.734c0.995,2.159,1.684,3.841,2.196,5.362c1.852,5.496,4.558,19.874,6.244,33.176
		c0.205,1.616,0.438,3.236,0.519,3.6c0.561,2.527,1.019,16.109,0.891,26.395c-0.13,10.478,0.048,14.353,0.71,15.423
		c0.07,0.114,0.191,0.981,0.268,1.926c0.077,0.945,0.261,2.558,0.41,3.584c0.335,2.308,0.356,11.119,0.032,13.467
		c-0.131,0.953-0.321,2.723-0.422,3.932c-0.119,1.43-0.281,2.138-0.464,2.025c-0.156-0.096-0.201-0.046-0.102,0.115
		c0.276,0.446-1.137,7.997-1.44,7.695c-0.483-0.484-0.567,20.232-0.096,23.685c0.182,1.328,0.401,3.417,0.487,4.642
		c0.086,1.226,0.222,2.334,0.302,2.463c0.079,0.129,0.315,1.287,0.522,2.572c0.354,2.188,0.547,3.129,1.546,7.538
		c0.216,0.953,0.327,1.842,0.247,1.974c-0.08,0.133-0.007,0.156,0.162,0.051c0.197-0.122,0.315,0.031,0.328,0.426
		c0.025,0.729,0.089,0.996,0.662,2.749c0.24,0.733,0.481,1.483,0.535,1.666c0.125,0.42,0.916,0.441,0.916,0.025
		c0-0.358,1.909-4.289,2.183-4.497c0.101-0.076,0.317-0.436,0.479-0.8c0.776-1.74,1.847-3.09,1.477-1.861
		c-0.82,2.721-0.706,10.713,0.243,17.058c0.208,1.389,0.308,2.649,0.222,2.8s-0.049,0.177,0.082,0.058
		c0.135-0.124,0.375,0.453,0.554,1.333c0.514,2.526,0.773,3.326,1.673,5.151c1.106,2.244,2.516,4.897,2.693,5.067
		c0.076,0.073,0.284,0.433,0.461,0.8c0.596,1.232,1.527,2.785,3.068,5.119c0.843,1.276,1.532,2.391,1.532,2.479
		c0,0.088,0.57,0.921,1.267,1.851c0.696,0.93,1.446,1.96,1.666,2.288c0.22,0.327,0.55,0.752,0.734,0.944
		c0.183,0.192,0.333,0.407,0.333,0.479c0,0.161,1.736,2.139,2.733,3.114c0.404,0.395,0.734,0.855,0.734,1.022
		c0,0.168,0.092,0.275,0.205,0.238c0.113-0.037,0.563,0.267,1,0.675c0.437,0.408,1.455,1.184,2.261,1.725
		c0.807,0.54,1.587,1.114,1.734,1.275c0.441,0.484,8.607,4.392,9.177,4.392c0.163,0,0.532,0.147,0.82,0.326
		c0.412,0.258,0.592,0.258,0.849,0c0.251-0.25,0.252-0.326,0.007-0.326c-0.176,0-0.32-0.131-0.32-0.291
		c0-0.159-0.36-1.068-0.8-2.018c-0.44-0.951-0.801-1.81-0.802-1.91s-0.162-0.489-0.358-0.866c-1.069-2.047-0.783-2.26,0.809-0.601
		c0.853,0.89,2.571,2.431,3.818,3.426c1.246,0.995,2.34,1.92,2.429,2.057c0.09,0.136,0.27,0.237,0.4,0.223
		c0.131-0.013,0.449,0.156,0.707,0.377c0.258,0.222,0.588,0.403,0.733,0.403s0.264,0.12,0.264,0.266
		c0,0.147,0.125,0.267,0.277,0.267c0.153,0,0.901,0.42,1.663,0.933c0.763,0.514,1.538,0.934,1.723,0.934s0.337,0.11,0.337,0.245
		c0,0.135,0.361,0.325,0.802,0.422c0.442,0.097,0.75,0.261,0.687,0.364c-0.064,0.103,0.085,0.201,0.331,0.217
		c1.26,0.083,3.417,0.43,3.959,0.636c0.338,0.128,1.393,0.313,2.345,0.411c1.069,0.109,1.665,0.281,1.562,0.449
		c-0.093,0.149-0.048,0.197,0.1,0.106c0.147-0.092,1.696,0.009,3.441,0.223c7.675,0.94,17.511,1.401,19.731,0.925
		c0.801-0.172,1.608-0.196,1.994-0.06c0.378,0.134,2.53,0.09,5.166-0.105c2.486-0.184,4.646-0.262,4.8-0.174
		c0.159,0.09,0.185,0.054,0.059-0.083c-0.132-0.143,0.853-0.373,2.4-0.559c3.961-0.477,10.976-1.726,11.962-2.13
		c0.923-0.377,3.723-2.045,3.817-2.272c0.048-0.118,0.203-0.215,0.344-0.215c0.299,0,1.926-1.108,2.056-1.4
		c0.048-0.11,0.202-0.2,0.34-0.2c0.345,0,2.904-1.93,2.904-2.191c0-0.115,0.12-0.209,0.267-0.209c0.146,0,0.485-0.21,0.752-0.467
		c1.098-1.054,2.327-2.063,2.514-2.065c0.11-0.001,0.17-0.082,0.134-0.18c-0.109-0.29,1.19-1.551,1.438-1.398
		c0.126,0.078,0.228-0.066,0.228-0.319s0.076-0.385,0.169-0.292c0.092,0.093-0.028,0.581-0.267,1.085
		c-0.239,0.504-0.435,1.05-0.435,1.213s-0.113,0.505-0.251,0.76c-1.323,2.439-1.914,4.053-1.649,4.507
		c0.156,0.269,0.287,0.352,0.292,0.185c0.004-0.168,0.334-0.387,0.732-0.487c0.67-0.168,1.699-0.59,4.076-1.673
		c0.513-0.233,1.083-0.425,1.267-0.425c0.183,0,0.278-0.055,0.211-0.122c-0.128-0.128,2.116-1.41,3.389-1.937
		c0.403-0.167,0.733-0.412,0.733-0.545c0-0.132,0.123-0.24,0.274-0.24c0.36,0,2.926-1.921,2.926-2.191
		c0-0.115,0.114-0.209,0.254-0.209c0.257,0,2.946-2.579,2.946-2.826c0-0.073,0.303-0.414,0.674-0.758s1.623-1.928,2.782-3.521
		c1.16-1.592,2.276-3.085,2.479-3.316c0.204-0.231,0.441-0.6,0.525-0.821c0.085-0.22,0.614-1.111,1.177-1.979
		c1.264-1.951,1.621-2.535,1.865-3.046c0.105-0.22,0.45-0.82,0.766-1.333c2.403-3.907,4.931-9.169,4.931-10.268
		c0-0.459,0.105-0.632,0.308-0.507c0.169,0.105,0.239,0.08,0.156-0.055c-0.133-0.216,0.021-1.356,0.487-3.57
		c1.002-4.768,1.349-12.935,0.744-17.467c-0.239-1.782,0.231-1.4,1.652,1.344c2.734,5.278,3.053,5.776,3.053,4.763
		c0-0.294,0.107-0.648,0.239-0.787c0.131-0.139,0.365-0.793,0.519-1.453c0.155-0.66,0.477-1.92,0.716-2.8
		c0.239-0.88,0.576-2.24,0.749-3.021c0.18-0.817,0.416-1.327,0.555-1.2c0.136,0.125,0.167,0.091,0.071-0.077
		c-0.093-0.163,0.02-1.123,0.251-2.133c1.938-8.474,2.991-31.317,1.67-36.26c-0.31-1.16-0.73-2.93-0.932-3.932
		c-0.203-1.003-0.417-1.903-0.476-2c-0.06-0.098-0.182-1.017-0.271-2.044c-0.09-1.027-0.281-2.347-0.424-2.933
		c-0.42-1.727-0.62-12.707-0.293-16.134c0.373-3.917,0.966-7.846,1.252-8.307c0.123-0.198,0.234-7.379,0.247-15.959
		c0.016-10.132,0.135-16.582,0.341-18.4c0.174-1.54,0.441-3.94,0.593-5.334c0.248-2.271,0.375-3.268,0.905-7.066
		c0.082-0.587,0.322-2.327,0.534-3.867s0.514-3.544,0.673-4.453c0.158-0.909,0.339-1.989,0.401-2.4
		c0.551-3.64,1.667-9.602,1.853-9.904c0.086-0.138,0.214-0.704,0.285-1.255c0.152-1.191,1.199-5.473,1.431-5.855
		c0.089-0.146,0.197-0.506,0.239-0.8c0.118-0.823,0.548-1.848,2.349-5.6c0.915-1.906,1.884-4.026,2.154-4.711
		s0.613-1.176,0.763-1.091c0.15,0.085,0.19,0.063,0.089-0.05c-0.172-0.191,0.708-2.954,1.546-4.855
		c0.204-0.462,0.371-1.068,0.371-1.346c0-0.279,0.124-0.631,0.276-0.783c0.152-0.152,0.332-0.626,0.399-1.053
		c0.068-0.428,0.239-1.197,0.381-1.711c0.984-3.555,1.188-5.569,1.199-11.866c0.012-6.373-0.135-10.069-0.388-9.82
		c-0.074,0.072-0.272-0.809-0.44-1.958c-0.767-5.222-1.395-7.72-1.419-5.638c-0.004,0.395-0.117,0.785-0.25,0.867
		s-0.328,0.779-0.433,1.549s-0.308,1.7-0.45,2.066c-0.142,0.367-0.316,1.145-0.386,1.73c-0.07,0.584-0.225,1.184-0.344,1.333
		c-0.119,0.149-0.304,0.691-0.411,1.204c-0.214,1.031-1.844,4.464-2.382,5.019c-0.384,0.396-0.347-0.85,0.114-3.819
		c0.137-0.88,0.373-3.94,0.525-6.8c0.39-7.332,0.431-8.765,0.248-8.65c-0.089,0.055-0.236-0.886-0.327-2.092
		c-0.091-1.205-0.334-2.731-0.54-3.391c-0.205-0.66-0.404-1.32-0.442-1.467c-0.253-0.981-3.156-6.344-3.512-6.489
		c-0.12-0.049-0.218-0.259-0.218-0.467c0-0.207-0.112-0.377-0.249-0.377c-0.136,0-0.32-0.226-0.407-0.501
		c-0.088-0.275-0.449-0.838-0.803-1.25s-0.572-0.877-0.483-1.033c0.088-0.156,0.068-0.2-0.045-0.097
		c-0.114,0.102-0.823-0.56-1.576-1.47c-2.332-2.817-2.616-3.126-5.789-6.298c-2.912-2.912-3.771-3.714-5.277-4.928l-0.633-0.51
		l0.219,0.91c0.175,0.726,0.361,10.639,0.2,10.642c-0.023,0.001-0.316-0.569-0.65-1.265c-0.334-0.697-1.185-2.249-1.891-3.45
		c-0.705-1.2-1.283-2.31-1.283-2.466c0-0.156-0.12-0.284-0.266-0.284c-0.147,0-0.267-0.125-0.267-0.278
		c0-0.311-1.055-1.882-1.467-2.185c-0.146-0.108-0.166-0.198-0.043-0.2s-0.088-0.394-0.47-0.871
		c-0.382-0.476-0.787-0.986-0.899-1.133c-1.359-1.776-1.623-2.212-1.453-2.4c0.109-0.12,0.049-0.133-0.135-0.027
		c-0.183,0.104-0.333,0.084-0.333-0.048c0-0.132-0.54-0.812-1.2-1.511c-0.66-0.698-1.2-1.377-1.2-1.509
		c0-0.131-0.116-0.238-0.258-0.238c-0.142,0-0.437-0.33-0.656-0.734c-0.219-0.403-0.403-0.655-0.409-0.56
		c-0.006,0.095-0.872-0.655-1.924-1.667c-1.053-1.012-2.02-1.839-2.149-1.839c-0.13,0-0.161-0.12-0.071-0.267
		c0.091-0.147,0.047-0.267-0.098-0.267s-0.422-0.154-0.616-0.343c-0.194-0.188-0.832-0.698-1.419-1.133s-1.213-0.97-1.392-1.19
		c-0.178-0.22-0.33-0.28-0.337-0.134c-0.008,0.178-0.078,0.178-0.208,0c-0.292-0.397-1.87-1.466-2.163-1.466
		c-0.141,0-0.296-0.09-0.344-0.2c-0.126-0.284-1.502-1.185-2.756-1.806c-0.587-0.29-1.128-0.608-1.203-0.707
		c-0.074-0.098-0.464-0.261-0.866-0.362c-0.402-0.101-0.731-0.281-0.731-0.4c0-0.119-0.36-0.295-0.8-0.392
		c-0.44-0.097-0.8-0.261-0.8-0.364c0-0.104-0.87-0.484-1.933-0.846c-1.064-0.361-1.994-0.732-2.067-0.823
		c-0.073-0.092-0.553-0.256-1.067-0.364c-0.513-0.109-1.053-0.29-1.2-0.403c-0.146-0.113-0.806-0.331-1.466-0.486
		c-0.66-0.154-1.74-0.418-2.4-0.586c-1.924-0.49-2.176-0.542-4-0.819c-0.954-0.145-2.307-0.377-3.007-0.516
		c-2.432-0.483-9.643-0.665-9.381-0.236c0.127,0.207,0.732,1.036,1.344,1.843c1.352,1.782,2.553,4.074,3.947,7.533
		c0.527,1.309,0.322,1.256-1.437-0.371c-0.806-0.746-2.052-1.853-2.768-2.46c-0.716-0.606-1.443-1.238-1.617-1.405
		c-0.698-0.669-4.286-3.03-4.605-3.03c-0.189,0-0.343-0.111-0.343-0.246c0-0.135-0.36-0.324-0.8-0.421
		c-0.44-0.097-0.8-0.286-0.8-0.421c0-0.135-0.15-0.25-0.333-0.255c-0.184-0.005-0.814-0.241-1.4-0.524
		c-0.587-0.283-1.284-0.519-1.549-0.524c-0.266-0.005-0.407-0.132-0.314-0.283c0.093-0.15,0.07-0.252-0.051-0.227
		c-0.445,0.093-2.473-0.372-2.368-0.542c0.06-0.097-0.092-0.194-0.338-0.215c-1.037-0.089-2.635-0.39-3.38-0.637
		c-0.44-0.146-1.4-0.323-2.134-0.394c-0.733-0.071-1.873-0.242-2.533-0.379C197.909,29.794,188.718,29.47,183.467,29.787
		 M216.421,59.905c1.95,1.263,2.534,1.621,3.046,1.865c0.22,0.105,0.46,0.26,0.533,0.344c0.303,0.347,1.864,1.353,2.1,1.353
		c0.141,0,0.296,0.106,0.344,0.236c0.092,0.243,2.532,2.164,2.749,2.164c0.067,0,0.47,0.33,0.895,0.733
		c0.426,0.403,1.108,0.973,1.516,1.267c0.408,0.293,1.114,0.861,1.569,1.262c0.455,0.401,0.924,0.731,1.043,0.733
		c0.118,0.003,0.141,0.125,0.051,0.271c-0.091,0.147-0.028,0.267,0.139,0.267c0.397,0,6.661,6.264,6.661,6.661
		c0,0.167,0.12,0.23,0.266,0.139c0.147-0.091,0.269-0.068,0.271,0.051c0.001,0.119,0.594,0.873,1.317,1.676
		c0.723,0.803,1.269,1.505,1.215,1.56c-0.055,0.055,0.252,0.443,0.682,0.864c0.43,0.42,0.782,0.827,0.782,0.904
		c0,0.151,1.822,2.591,2.099,2.812c0.092,0.073,0.311,0.373,0.486,0.666c0.176,0.294,1.166,1.928,2.2,3.632
		c1.035,1.704,1.882,3.224,1.882,3.377c0,0.154,0.09,0.32,0.2,0.369c0.322,0.143,3.379,6.597,3.681,7.772
		c0.292,1.132,0.795,1.56,1.488,1.265c1.113-0.474,5.427-0.81,6.522-0.507c2.273,0.627,6.466,4.48,8.265,7.592
		c0.413,0.715,0.838,1.362,0.943,1.436c0.105,0.075,0.274,0.465,0.375,0.867c0.284,1.13,0.741,0.885,1.99-1.069
		c1.495-2.338,3.408-4.879,4.112-5.461c0.306-0.253,0.469-0.463,0.362-0.467c-0.278-0.008,6.168-6.372,6.794-6.707
		c0.762-0.409-0.624,1.605-2.266,3.289c-0.256,0.264-0.465,0.569-0.464,0.679c0.001,0.11-0.205,0.44-0.459,0.733
		c-0.253,0.294-0.481,0.667-0.506,0.829c-0.025,0.163-0.419,0.811-0.875,1.44c-0.456,0.63-0.829,1.297-0.829,1.482
		c0,0.186-0.09,0.378-0.2,0.427c-0.195,0.087-1.629,2.889-2.706,5.289c-0.745,1.661-1.89,5.099-1.892,5.682
		c-0.001,0.266-0.096,0.425-0.212,0.353c-0.302-0.187-0.319,0.862-0.032,2.098c0.136,0.587,0.363,3.167,0.505,5.734
		c0.36,6.541,0.372,6.6,2.726,14.133c0.298,0.953,0.634,1.853,0.746,2c0.112,0.147,0.289,0.665,0.393,1.151
		c0.104,0.487,0.357,1.207,0.562,1.6c0.205,0.394,0.374,0.919,0.375,1.167s0.108,0.516,0.238,0.597
		c0.13,0.08,0.318,0.582,0.418,1.115c0.1,0.533,0.288,1.164,0.417,1.403c0.128,0.238,0.489,1.334,0.801,2.434
		c0.312,1.1,0.671,2.3,0.798,2.666c0.126,0.367,0.309,1.087,0.406,1.6c0.174,0.92,0.496,2.055,1.475,5.2
		c1.798,5.778,2.34,26.55,0.932,35.734c-0.818,5.333-1.036,6.511-1.19,6.417c-0.088-0.055-0.191,0.348-0.23,0.895
		c-0.038,0.547-0.25,1.646-0.47,2.441c-0.22,0.796-0.453,1.747-0.517,2.113c-0.063,0.367-0.377,1.627-0.697,2.8
		c-0.319,1.174-0.725,2.734-0.901,3.467c-0.176,0.733-0.4,1.513-0.498,1.733c-0.098,0.22-0.293,0.94-0.434,1.6
		c-0.506,2.379-0.965,4.026-1.088,3.904c-0.069-0.068-0.149,0.216-0.179,0.632c-0.03,0.415-0.294,1.755-0.587,2.977
		c-0.293,1.221-0.587,2.521-0.653,2.887c-0.067,0.367-0.211,1.018-0.321,1.446c-0.217,0.847-0.279,1.476-0.343,3.437
		c-0.023,0.705-0.145,1.219-0.27,1.141c-0.126-0.077-0.18,0.126-0.121,0.451c0.167,0.924-1.261,10.226-1.529,9.959
		c-0.077-0.078-0.155,0.063-0.172,0.312c-0.076,1.119-0.994,4.639-1.414,5.422c-0.128,0.238-0.314,0.867-0.414,1.397
		c-0.099,0.53-0.287,0.898-0.418,0.817c-0.13-0.08-0.237,0.107-0.237,0.417c0,0.886-1.35,3.836-3.134,6.849
		c-0.623,1.053-1.133,2.043-1.133,2.2c0,0.157-0.112,0.286-0.25,0.286c-0.137,0-0.516,0.475-0.843,1.055
		c-0.326,0.581-0.712,0.983-0.858,0.893c-0.146-0.09-0.192-0.046-0.103,0.098c0.163,0.264-0.337,0.89-2.806,3.511l-1.342,1.424
		l0.173,1.909c0.616,6.818,0.29,10.041-0.519,5.131c-0.098-0.599-0.275-1.208-0.393-1.355s-0.265-0.627-0.327-1.067
		c-0.062-0.439-0.252-1.137-0.422-1.55c-0.171-0.413-0.31-0.833-0.31-0.934c0-0.217-3.351-9.271-3.719-10.049
		c-0.138-0.293-0.514-1.133-0.834-1.866c-1.349-3.089-2.653-5.491-3.385-6.235c-1.159-1.179-7.183-5.365-7.72-5.365
		c-0.164,0-0.338-0.102-0.386-0.226c-0.107-0.271-0.311-0.38-5.889-3.174c-2.416-1.21-4.579-2.2-4.808-2.2
		c-0.228,0-0.455-0.09-0.503-0.2c-0.049-0.11-0.809-0.483-1.689-0.828c-0.88-0.345-1.978-0.795-2.441-1
		c-0.462-0.205-0.958-0.372-1.102-0.372c-0.145,0-0.607-0.18-1.027-0.399c-0.42-0.219-0.95-0.399-1.177-0.4
		c-0.227-0.001-0.538-0.126-0.69-0.278c-0.152-0.152-0.626-0.334-1.053-0.405c-0.427-0.071-1.017-0.235-1.31-0.363
		c-0.294-0.129-1.351-0.497-2.351-0.817l-1.816-0.582l-2.861,1.072c-7.82,2.931-9.748,2.949-17.639,0.161
		c-3.33-1.176-4.789-1.147-7.234,0.145c-0.238,0.126-0.87,0.311-1.403,0.411c-0.533,0.1-1.035,0.288-1.115,0.418
		s-0.349,0.237-0.597,0.238s-0.795,0.181-1.215,0.4c-0.42,0.219-0.9,0.399-1.066,0.4c-0.167,0.001-0.625,0.17-1.019,0.375
		c-0.393,0.205-1.083,0.454-1.533,0.553c-0.45,0.099-0.818,0.29-0.818,0.425c0,0.135-0.159,0.246-0.354,0.246
		c-0.825,0-11.13,4.898-11.335,5.387c-0.049,0.117-0.319,0.213-0.6,0.213c-0.281,0-0.511,0.105-0.511,0.234s-0.36,0.383-0.8,0.566
		c-0.44,0.182-0.8,0.422-0.8,0.534c0,0.112-0.21,0.276-0.467,0.365c-1.548,0.535-6.733,4.556-6.733,5.221
		c0,0.154-0.09,0.281-0.2,0.283c-0.191,0.002-1.865,3.161-2.646,4.993c-0.203,0.474-0.56,1.314-0.794,1.866
		c-0.234,0.553-0.591,1.344-0.793,1.759c-0.202,0.415-0.367,0.961-0.367,1.214c0,0.252-0.106,0.572-0.236,0.711
		c-0.13,0.14-0.533,1.121-0.895,2.181c-0.362,1.061-0.755,1.841-0.873,1.734c-0.118-0.107-0.141-0.064-0.05,0.095
		c0.091,0.16-0.118,1.12-0.463,2.134c-0.576,1.689-1.038,3.266-1.791,6.11c-0.631,2.385-0.766,2.082-0.596-1.334
		c0.095-1.906,0.158-3.743,0.14-4.081c-0.018-0.338,0.061-0.557,0.176-0.486c1.099,0.679-0.283-2.394-1.812-4.031
		c-1.96-2.098-3.2-3.534-3.2-3.707c0-0.065-0.459-0.742-1.021-1.506c-1.001-1.362-3.161-5.056-3.036-5.19
		c0.035-0.038-0.232-0.653-0.594-1.368c-0.362-0.714-0.801-1.883-0.975-2.598c-0.175-0.715-0.406-1.419-0.515-1.566
		s-0.287-0.683-0.395-1.191c-0.109-0.509-0.296-1.109-0.414-1.334c-0.328-0.619-1.351-4.999-1.404-6.004
		c-0.025-0.486-0.136-0.829-0.246-0.762c-0.11,0.068-0.217-0.275-0.238-0.76c-0.07-1.624-0.176-2.496-0.433-3.559
		c-0.141-0.581-0.271-1.385-0.289-1.786c-0.138-3.024-1.166-8.798-2.529-14.197c-0.221-0.876-0.332-1.716-0.247-1.867
		c0.086-0.152,0.048-0.175-0.086-0.053c-0.139,0.127-0.375-0.382-0.555-1.2c-0.173-0.781-0.494-2.137-0.714-3.013
		c-0.22-0.876-0.331-1.705-0.247-1.842c0.085-0.136,0.026-0.169-0.129-0.073c-0.177,0.11-0.351-0.322-0.466-1.158
		c-0.101-0.734-0.292-1.401-0.425-1.483s-0.242-0.429-0.242-0.77c0-0.341-0.174-1.204-0.386-1.917
		c-0.602-2.024-1.504-6.262-1.562-7.337c-0.028-0.536-0.142-0.918-0.252-0.851s-0.201-0.215-0.203-0.627
		c-0.001-0.412-0.191-1.349-0.421-2.083c-0.856-2.728-1.039-21.616-0.25-25.778c0.224-1.181,0.407-2.873,0.407-3.761
		c0-0.888,0.177-2.224,0.394-2.971c0.216-0.746,0.467-2.287,0.556-3.425c0.108-1.365,0.26-2.008,0.448-1.892
		c0.157,0.097,0.219,0.068,0.138-0.065c-0.212-0.347,0.841-5.325,1.405-6.641c0.126-0.293,0.309-0.953,0.408-1.467
		c0.099-0.513,0.272-1.053,0.385-1.2c0.112-0.146,0.292-0.686,0.4-1.2c0.107-0.513,0.287-1.053,0.4-1.2
		c0.112-0.146,0.29-0.664,0.394-1.151s0.357-1.207,0.562-1.6c0.206-0.393,0.374-0.905,0.375-1.138
		c0.001-0.232,0.083-0.503,0.182-0.602c0.099-0.099,0.499-1.139,0.888-2.312c0.389-1.173,0.807-2.042,0.929-1.931
		c0.122,0.11,0.148,0.071,0.058-0.087c-0.09-0.158,0.019-0.878,0.242-1.6c0.841-2.722,1.432-5.281,1.601-6.928
		c0.096-0.937,0.248-1.658,0.338-1.602c0.09,0.055,0.123-0.479,0.073-1.188c-0.117-1.658,0.408-8.357,0.74-9.434
		c0.14-0.455,0.511-1.667,0.823-2.693c1.496-4.911,5.723-11.12,8.607-12.643c0.392-0.207,0.924-0.57,1.183-0.806
		c1.162-1.062,5.696-1.181,10.205-0.269c2.333,0.472,2.4,0.479,2.4,0.257c0-0.116-0.283-0.397-0.63-0.624
		c-0.346-0.226-0.796-0.57-1-0.764c-0.203-0.194-0.811-0.648-1.35-1.01c-0.539-0.361-0.911-0.77-0.826-0.907
		c0.085-0.138,0.039-0.178-0.103-0.091c-0.142,0.088-0.571-0.104-0.953-0.425c-0.382-0.322-1.304-1.063-2.05-1.646
		C152.61,96.355,152,95.785,152,95.672c0-0.113-0.126-0.205-0.279-0.205c-0.154,0-0.544-0.283-0.867-0.628
		c-0.323-0.345-1.15-1.113-1.838-1.705c-0.687-0.593-1.177-1.15-1.089-1.239c0.089-0.089-0.001-0.162-0.201-0.162
		c-0.199,0-1.809-1.487-3.577-3.306c-3.4-3.495-4.983-5.227-4.78-5.227c0.068,0-0.302-0.438-0.823-0.974
		c-0.52-0.536-0.946-1.06-0.946-1.164s-0.358-0.596-0.796-1.093c-0.437-0.496-0.797-0.974-0.8-1.062
		c-0.002-0.087-0.244-0.435-0.537-0.774c-0.294-0.338-0.534-0.74-0.534-0.892c0-0.153,0.295,0.121,0.654,0.608
		c1.181,1.601,7.608,8.018,8.03,8.018c0.078,0,0.406,0.274,0.729,0.609c0.323,0.335,1.427,1.264,2.454,2.065
		c1.027,0.8,1.987,1.554,2.133,1.675c0.147,0.122,1.287,0.938,2.534,1.815c1.246,0.877,2.478,1.769,2.736,1.982
		c0.258,0.213,0.531,0.387,0.606,0.387c0.075,0,1.043,0.6,2.15,1.333c1.107,0.734,2.125,1.334,2.261,1.334
		c0.135,0,0.247,0.112,0.247,0.248c0,0.137,0.259,0.331,0.575,0.432c0.471,0.149,2.29,1.161,5.025,2.797
		c0.22,0.131,2.38,1.215,4.8,2.408c2.42,1.193,4.824,2.391,5.344,2.661c0.916,0.477,6.146,1.854,7.042,1.854
		c0.245,0,0.39,0.09,0.322,0.2c-0.068,0.11,0.134,0.222,0.45,0.25c0.316,0.027,0.875,0.102,1.242,0.166
		c0.366,0.063,1.003,0.131,1.415,0.15c0.412,0.018,0.691,0.128,0.62,0.243c-0.071,0.115,0.072,0.225,0.318,0.244
		c0.245,0.018,0.807,0.09,1.247,0.16c0.44,0.069,1.137,0.14,1.549,0.156c0.493,0.02,0.684,0.136,0.559,0.339
		c-0.105,0.169-0.077,0.237,0.062,0.151c0.242-0.149,4.583,0.377,5.963,0.724c2.937,0.737,17.067,0.531,17.067-0.249
		c0-0.483-3.527-5.92-6.141-9.468c-13.996-18.996-32.668-33.955-47.993-38.448c-0.513-0.151-1.053-0.367-1.2-0.482
		c-0.146-0.114-0.664-0.293-1.151-0.397s-1.207-0.369-1.6-0.589c-0.707-0.395-0.708-0.398-0.049-0.223
		c0.367,0.098,1.147,0.297,1.734,0.443c0.586,0.146,1.262,0.37,1.5,0.496c0.239,0.127,0.87,0.312,1.403,0.412
		c0.533,0.1,1.035,0.289,1.115,0.419c0.081,0.13,0.409,0.24,0.731,0.245c0.321,0.005,1.064,0.241,1.651,0.524
		c0.586,0.284,1.203,0.52,1.369,0.525c0.167,0.005,0.647,0.188,1.067,0.407c0.42,0.219,0.981,0.399,1.246,0.4
		s0.417,0.107,0.338,0.236c-0.08,0.129,0.216,0.306,0.658,0.395c1.378,0.275,9.045,4.219,11.735,6.035
		c0.813,0.55,1.852,1.192,2.308,1.428c0.455,0.236,0.993,0.581,1.194,0.768c0.656,0.61,2.057,1.54,2.318,1.54
		c0.141,0,0.296,0.106,0.344,0.236c0.094,0.249,2.534,2.164,2.758,2.164c0.072,0,0.596,0.465,1.165,1.033
		c0.568,0.568,1.157,1.078,1.309,1.133c1.019,0.37,11.163,10.335,14.057,13.809c0.88,1.057,1.726,2.065,1.88,2.24
		c0.154,0.175,0.9,1.158,1.659,2.185c0.759,1.026,1.678,2.226,2.042,2.666c0.365,0.44,1.262,1.64,1.995,2.667
		c0.732,1.027,1.457,2.012,1.611,2.189c0.154,0.177,0.28,0.392,0.28,0.477c0,0.146,1.042,1.709,1.333,2.001
		c0.229,0.228,0.791,1.174,1.047,1.763c0.246,0.565,0.975,1.004,1.317,0.793c0.177-0.11,3.465-0.464,4.878-0.525
		c0.389-0.017,0.652-0.121,0.584-0.231s0.333-0.221,0.892-0.246c1.495-0.067,1.737-0.097,2.616-0.329
		c0.44-0.116,1.1-0.265,1.466-0.331c0.367-0.066,1.666-0.36,2.888-0.653c1.222-0.293,2.56-0.557,2.974-0.587
		c0.414-0.03,0.705-0.133,0.645-0.229c-0.106-0.173,2.364-0.642,3.044-0.578c0.194,0.018,0.274-0.045,0.18-0.139
		c-0.095-0.094,0.467-0.313,1.249-0.487c2.109-0.468,3.753-0.905,4.354-1.158c0.293-0.124,1.134-0.359,1.869-0.522
		c2.253-0.501,2.343-0.922,0.942-4.408c-0.848-2.111-1.103-2.762-1.359-3.467c-0.159-0.44-0.27-0.8-0.245-0.8
		c0.07,0-1.818-3.874-2.469-5.066c-0.32-0.587-0.762-1.457-0.982-1.934c-0.221-0.476-0.496-0.866-0.612-0.866
		c-0.116,0-0.211-0.135-0.211-0.3c0-0.361-2.271-4.143-2.815-4.687c-0.212-0.211-0.385-0.48-0.385-0.596
		c0-0.117-0.358-0.618-0.796-1.115c-0.437-0.496-0.797-0.974-0.8-1.062c-0.003-0.139-0.349-0.596-1.332-1.762
		c-0.15-0.178-0.272-0.384-0.272-0.459c0-0.075-0.538-0.711-1.195-1.412c-0.658-0.7-1.198-1.431-1.2-1.623
		c-0.003-0.192-0.125-0.275-0.272-0.184c-0.146,0.09-0.266,0.032-0.266-0.13c0-0.406-7.55-7.891-9.271-9.192
		c-0.768-0.58-1.396-1.15-1.396-1.266c0-0.117-0.187-0.212-0.416-0.212c-0.228,0-0.341-0.12-0.251-0.267
		c0.091-0.147,0.064-0.267-0.059-0.267c-0.201,0-4.19-2.812-5.541-3.907C213.629,58.294,214.714,58.799,216.421,59.905
		 M248.133,154.721c-1.026,0.117-2.364,0.243-2.972,0.28c-0.608,0.036-1.051,0.156-0.984,0.266c0.067,0.11-0.216,0.217-0.628,0.238
		c-1.76,0.089-2.548,0.199-3.299,0.461c-0.439,0.153-0.977,0.21-1.194,0.126c-0.218-0.083-0.55-0.024-0.738,0.132
		c-0.189,0.157-0.577,0.279-0.864,0.273c-0.286-0.007-1.946,0.296-3.688,0.673c-1.743,0.377-3.273,0.621-3.4,0.542
		c-0.128-0.079-0.233-0.024-0.233,0.121c0,0.146-0.335,0.255-0.744,0.243c-0.41-0.011-1.005,0.118-1.323,0.289
		c-0.318,0.17-0.673,0.282-0.789,0.249c-0.266-0.075-5.311,1.076-6.234,1.422c-0.379,0.143-0.799,0.234-0.933,0.203
		c-0.134-0.031-0.423,0.008-0.643,0.087c-1.094,0.395-4.495,1.254-5.467,1.382c-0.293,0.038-0.533,0.227-0.533,0.418
		c0,0.192,0.24,0.482,0.533,0.645s0.593,0.368,0.667,0.456c0.073,0.088,0.253,0.208,0.4,0.266c0.146,0.059,2.024,1.288,4.173,2.731
		c3.484,2.341,3.969,2.59,4.487,2.313c0.32-0.171,0.752-0.246,0.961-0.166c0.208,0.08,0.379,0.043,0.379-0.082
		c0-0.199,0.495-0.348,2.138-0.642c0.222-0.04,0.522-0.14,0.666-0.223c0.265-0.152,1.638-0.562,2.129-0.636
		c0.147-0.022,0.476-0.131,0.732-0.242c0.256-0.111,0.755-0.22,1.108-0.241s0.587-0.128,0.519-0.238
		c-0.101-0.164,0.396-0.234,1.377-0.195c0.075,0.003,0.491-0.178,0.925-0.403c0.434-0.224,0.883-0.387,0.998-0.363
		c0.114,0.025,0.388-0.017,0.608-0.093c1.142-0.394,2.343-0.735,2.976-0.845c0.391-0.069,0.963-0.26,1.272-0.425
		c0.31-0.166,0.685-0.225,0.836-0.132c0.15,0.092,0.425,0.042,0.612-0.113c0.186-0.155,0.721-0.311,1.188-0.347
		c0.467-0.035,0.849-0.178,0.849-0.317c0-0.564,16.545,0.349,16.756,0.925c0.049,0.134,0.183,0.186,0.297,0.116
		c0.177-0.109,1.564,0.124,4.814,0.811c0.366,0.077,1.326,0.32,2.133,0.539c0.807,0.218,1.758,0.459,2.115,0.533
		c0.356,0.075,0.745,0.196,0.863,0.27c0.119,0.073,0.896,0.31,1.728,0.527c0.832,0.216,1.943,0.583,2.47,0.813
		c0.527,0.231,1.197,0.513,1.491,0.626c0.293,0.113,0.879,0.346,1.301,0.516c0.422,0.171,0.809,0.269,0.859,0.219
		c0.429-0.429-5.328-6.862-6.14-6.862c-0.075,0-0.867-0.473-1.762-1.051c-0.894-0.578-2.216-1.247-2.939-1.487
		c-0.722-0.24-1.386-0.555-1.475-0.699c-0.132-0.213-0.951-0.642-1.711-0.897c-0.073-0.024-0.493-0.206-0.933-0.404
		c-0.44-0.198-0.98-0.386-1.2-0.418c-0.22-0.032-0.912-0.245-1.537-0.474c-0.626-0.229-1.166-0.411-1.2-0.405
		c-0.131,0.024-1.679-0.349-2.063-0.497c-0.22-0.084-0.498-0.131-0.617-0.105c-0.12,0.026-0.696-0.081-1.281-0.238
		c-0.585-0.158-2.047-0.347-3.25-0.42c-1.202-0.073-2.306-0.163-2.452-0.199C250.12,154.536,249.16,154.603,248.133,154.721
		 M159.928,155.088c-0.034,0.03-1.141,0.126-2.461,0.213c-1.32,0.087-2.841,0.283-3.38,0.435c-0.538,0.153-1.078,0.256-1.2,0.229
		c-0.121-0.028-0.4,0.019-0.62,0.104c-0.381,0.146-1.718,0.467-1.995,0.48c-0.072,0.003-0.643,0.193-1.268,0.421
		c-0.626,0.229-1.317,0.443-1.537,0.475c-0.22,0.032-0.76,0.22-1.2,0.417c-0.44,0.198-0.86,0.38-0.934,0.405
		c-0.76,0.254-1.579,0.684-1.71,0.896c-0.09,0.145-0.754,0.459-1.476,0.699c-0.722,0.24-2.045,0.909-2.939,1.487
		c-0.894,0.578-1.687,1.051-1.762,1.051c-0.812,0-6.568,6.433-6.14,6.862c0.051,0.05,0.437-0.048,0.86-0.219
		c0.422-0.17,1.007-0.402,1.301-0.516c0.293-0.113,0.964-0.395,1.49-0.625c0.527-0.231,1.638-0.597,2.47-0.814
		c0.832-0.217,1.61-0.454,1.728-0.527c0.119-0.073,0.507-0.194,0.864-0.269c0.356-0.075,1.308-0.315,2.114-0.534
		c0.807-0.219,1.767-0.462,2.134-0.539c3.249-0.686,4.636-0.92,4.813-0.811c0.114,0.071,0.248,0.019,0.297-0.116
		c0.211-0.576,16.756-1.489,16.756-0.924c0,0.138,0.382,0.281,0.849,0.317c0.467,0.035,1.002,0.191,1.189,0.346
		c0.186,0.155,0.462,0.206,0.612,0.113c0.15-0.093,0.526-0.033,0.835,0.132c0.309,0.166,0.882,0.357,1.272,0.425
		c0.633,0.11,1.834,0.451,2.977,0.846c0.22,0.076,0.493,0.117,0.608,0.093c0.114-0.025,0.563,0.138,0.997,0.363
		c0.434,0.224,0.85,0.405,0.925,0.402c0.981-0.039,1.478,0.032,1.378,0.195c-0.068,0.11,0.165,0.217,0.518,0.239
		c0.353,0.021,0.852,0.129,1.108,0.24c0.256,0.112,0.586,0.221,0.732,0.243c0.492,0.073,1.864,0.483,2.129,0.636
		c0.144,0.082,0.444,0.183,0.667,0.222c1.642,0.294,2.138,0.443,2.138,0.642c0,0.125,0.17,0.162,0.379,0.082
		c0.208-0.08,0.641-0.005,0.96,0.166c0.519,0.277,1.003,0.028,4.488-2.313c2.148-1.443,4.026-2.672,4.173-2.73
		c0.146-0.059,0.326-0.179,0.4-0.267c0.073-0.088,0.373-0.293,0.666-0.456c0.294-0.162,0.534-0.452,0.534-0.644
		c0-0.192-0.24-0.381-0.534-0.419c-0.972-0.128-4.372-0.987-5.466-1.381c-0.22-0.08-0.51-0.119-0.644-0.088
		c-0.133,0.031-0.553-0.06-0.933-0.202c-0.922-0.347-5.967-1.498-6.234-1.422c-0.116,0.032-0.471-0.08-0.789-0.25
		s-0.913-0.3-1.322-0.288c-0.41,0.011-0.745-0.098-0.745-0.244c0-0.145-0.105-0.2-0.232-0.121c-0.128,0.079-1.658-0.164-3.4-0.541
		c-1.743-0.377-3.402-0.68-3.689-0.674c-0.287,0.006-0.675-0.116-0.863-0.272c-0.189-0.157-0.521-0.216-0.738-0.132
		c-0.218,0.083-0.755,0.026-1.194-0.127c-0.752-0.262-1.54-0.372-3.3-0.461c-0.412-0.021-0.694-0.128-0.627-0.238
		c0.067-0.11-0.316-0.222-0.851-0.248c-0.535-0.027-1.905-0.155-3.045-0.284S159.961,155.058,159.928,155.088 M110.267,166.149
		c-1.253,0.288-2.267,0.747-2.267,1.026c0,0.141-0.242,0.332-0.537,0.426c-0.296,0.094-0.469,0.282-0.384,0.418
		c0.084,0.136,0.048,0.248-0.079,0.248c-0.381,0-1.079,1.866-1.545,4.133c-0.409,1.991-0.51,9.942-0.122,9.555
		c0.074-0.074,0.268,0.807,0.433,1.956c0.353,2.463,0.838,4.971,1.177,6.089c0.133,0.44,0.494,1.7,0.802,2.8
		c0.308,1.1,0.657,2.24,0.776,2.533c0.43,1.059,2.475,6.42,2.772,7.267c0.167,0.477,0.395,0.867,0.506,0.867
		c0.11,0,0.201,0.137,0.201,0.305c0,0.393,1.876,4.318,2.15,4.497c0.114,0.075,0.29,0.465,0.391,0.867
		c0.101,0.402,0.264,0.731,0.361,0.731c0.098,0,0.415,0.539,0.705,1.197c0.289,0.659,0.619,1.199,0.733,1.2
		c0.114,0.002,0.321,0.303,0.46,0.669c0.466,1.225,0.72,0.688,0.902-1.907c0.173-2.465,0.153-2.615-0.494-3.547
		c-0.371-0.536-0.675-1.118-0.675-1.293c0-0.176-0.12-0.319-0.266-0.319c-0.147,0-0.267-0.18-0.267-0.4
		c0-0.22-0.228-0.628-0.506-0.907c-0.279-0.278-0.654-0.968-0.834-1.533c-0.179-0.565-0.663-1.747-1.074-2.627
		c-2.821-6.042-4.513-18.546-2.905-21.477c0.198-0.361,0.388-0.826,0.422-1.033c0.229-1.383,2.368-2.127,4.448-1.547l0.751,0.209
		l-0.174-1.276c-0.095-0.702-0.34-1.996-0.544-2.876c-0.32-1.379-0.548-2.617-0.629-3.416c-0.012-0.118-0.142-0.141-0.288-0.051
		c-0.147,0.091-0.267,0.002-0.267-0.198c0-0.444-1.634-2.068-2.079-2.068c-0.177,0-0.321-0.106-0.321-0.236
		C112,166.077,111.168,165.942,110.267,166.149 M296.916,166.634c-0.994,0.606-2.493,2.45-2.674,3.287
		c-0.195,0.905-0.934,4.458-1.173,5.639l-0.207,1.028l0.836-0.212c4.052-1.024,5.502,1.164,5.502,8.302
		c0,1.991-0.09,3.565-0.2,3.497c-0.11-0.068-0.211,0.254-0.225,0.717c-0.036,1.18-0.359,3.359-0.641,4.308
		c-1.487,5.022-1.55,5.201-2.976,8.334c-0.417,0.917-0.758,1.735-0.758,1.819c0,0.083-0.36,0.674-0.8,1.314
		c-0.44,0.639-0.8,1.293-0.8,1.453s-0.3,0.766-0.667,1.347c-0.739,1.171-0.887,3.062-0.381,4.884c0.328,1.18,0.652,1.06,1.471-0.543
		c0.28-0.55,0.66-1.16,0.844-1.356c0.183-0.196,0.333-0.535,0.333-0.753c0-0.219,0.123-0.321,0.273-0.228
		c0.151,0.093,0.242,0.07,0.204-0.051s0.818-2.02,1.902-4.22c1.083-2.2,2.299-4.937,2.7-6.082s0.802-2.155,0.892-2.244
		c0.089-0.09,0.162-0.39,0.162-0.668c0-0.277,0.119-0.431,0.264-0.341c0.153,0.095,0.194-0.018,0.098-0.269
		c-0.091-0.238-0.032-0.694,0.131-1.014c0.164-0.32,0.415-1.062,0.557-1.649c0.143-0.586,0.455-1.786,0.693-2.666
		c0.238-0.88,0.598-2.472,0.799-3.538c0.201-1.066,0.42-2.026,0.486-2.133c0.756-1.232,0.651-13.164-0.124-14.098
		c-0.166-0.201-0.221-0.365-0.121-0.365s-0.154-0.596-0.563-1.325C301.465,166.518,298.759,165.51,296.916,166.634 M112.761,187.451
		c-0.067,0.199,0.018,1.514,0.188,2.922c0.169,1.408,0.247,2.669,0.172,2.802c-0.075,0.132-0.012,0.163,0.141,0.069
		c0.17-0.105,0.351,0.319,0.466,1.092c0.104,0.695,0.283,1.384,0.399,1.531c0.117,0.146,0.298,0.669,0.403,1.161
		c0.105,0.492,0.444,1.452,0.753,2.133c0.309,0.682,0.566,1.299,0.573,1.372c0.006,0.074,0.551,0.974,1.211,2l1.2,1.867l0.077-2.501
		c0.062-2.009-0.008-2.595-0.356-2.978c-0.425-0.471-1.422-2.147-2.055-3.454c-0.177-0.367-0.385-0.727-0.462-0.8
		c-0.077-0.074-0.305-0.614-0.506-1.2c-0.202-0.587-0.591-1.54-0.866-2.117c-0.274-0.578-0.501-1.238-0.503-1.467
		C113.589,189.132,112.884,187.081,112.761,187.451 M296,188.533c0,0.458-0.09,0.776-0.2,0.709c-0.11-0.068-0.231,0.299-0.269,0.815
		c-0.078,1.063-0.364,1.774-2.237,5.564c-0.73,1.478-1.631,3.014-2.001,3.413c-0.797,0.86-0.729,5.605,0.071,4.94
		c0.778-0.645,4.074-8.387,4.512-10.595c0.607-3.067,0.776-5.274,0.42-5.494C296.103,187.766,296,187.992,296,188.533
		 M206.467,252.373c0.403,0.094,0.733,0.288,0.733,0.432s0.188,0.262,0.418,0.262s1.52,0.527,2.867,1.171
		c2.375,1.136,3.351,1.487,6.715,2.414c0.88,0.243,2.184,0.616,2.897,0.828c0.714,0.213,1.517,0.387,1.785,0.387
		c0.267,0,0.552,0.106,0.633,0.236c0.08,0.13,0.597,0.319,1.149,0.421c0.551,0.101,1.603,0.36,2.336,0.575
		c0.733,0.215,1.693,0.495,2.133,0.621c3.747,1.075,4.872,1.414,5.334,1.605c0.293,0.122,1.348,0.482,2.344,0.801
		c4.523,1.449,4.811,1.726,6.947,6.674c0.222,0.513,0.652,1.497,0.956,2.185c0.304,0.689,0.553,1.432,0.553,1.651
		c0,0.22,0.12,0.473,0.266,0.564c0.147,0.091,0.267,0.35,0.267,0.575c0,0.226,0.167,0.789,0.372,1.251
		c1.545,3.493,1.484,3.839-0.832,4.744c-4.52,1.766-17.934,1.886-19.036,0.172c-0.09-0.14-0.27-0.243-0.4-0.229
		c-0.485,0.053-1.704-0.495-1.704-0.766c0-0.154-0.155-0.28-0.345-0.28c-0.661,0-3.956-3.518-4.584-4.893
		c-0.144-0.316-0.414-0.733-0.6-0.926c-0.186-0.194-0.338-0.524-0.338-0.734c0-0.209-0.092-0.381-0.204-0.381
		c-0.113,0-0.491-0.72-0.84-1.6l-0.636-1.6h-10.964h-10.963l-0.463,1.069c-0.255,0.588-0.463,1.13-0.463,1.205
		c0,0.277-2.725,4.53-2.958,4.615c-0.133,0.049-0.242,0.202-0.242,0.34c0,0.284-2.682,2.905-2.973,2.905
		c-0.104,0-0.347,0.15-0.541,0.333c-2.62,2.478-16.002,3.014-20.926,0.838c-0.462-0.204-0.958-0.371-1.101-0.371
		c-0.827,0-1.203-1.784-0.545-2.586c0.144-0.176,0.319-0.686,0.39-1.134c0.07-0.448,0.3-1.145,0.51-1.548
		c0.211-0.403,0.383-0.884,0.384-1.069c0.001-0.186,0.119-0.546,0.262-0.8c0.143-0.255,0.563-1.21,0.934-2.124
		c0.371-0.913,0.974-2.315,1.34-3.116c0.366-0.801,0.666-1.584,0.666-1.74c0-0.156,0.12-0.283,0.267-0.283
		c0.146,0,0.266-0.167,0.266-0.37c0-0.416,0.87-1.05,1.867-1.361c0.367-0.114,0.727-0.284,0.8-0.377
		c0.127-0.161,4.614-1.656,7.733-2.576c0.807-0.238,1.767-0.534,2.134-0.658c0.366-0.124,1.082-0.308,1.591-0.409
		c0.508-0.101,1.108-0.279,1.333-0.395c0.225-0.116,1.489-0.472,2.809-0.792c1.32-0.32,2.64-0.679,2.933-0.799
		c0.294-0.12,1.044-0.348,1.667-0.507c0.623-0.159,1.643-0.42,2.267-0.579c0.623-0.159,1.373-0.392,1.666-0.518
		c0.294-0.126,0.924-0.305,1.4-0.398c0.477-0.094,0.867-0.271,0.867-0.395c0-0.123,0.36-0.303,0.8-0.4c0.44-0.096,0.8-0.276,0.8-0.4
		c0-0.123,0.36-0.303,0.8-0.4c0.44-0.096,0.8-0.286,0.8-0.421s0.127-0.245,0.281-0.245c0.274,0,2.386-0.865,3.186-1.305
		c0.236-0.13,0.618-0.085,0.933,0.111C205.493,252.054,206.063,252.28,206.467,252.373"/>
</g>
</svg>
